<svg xmlns="http://www.w3.org/2000/svg" xmlns:xlink="http://www.w3.org/1999/xlink" aria-hidden="true" role="img" class="iconify iconify--logos" width="35.93" height="32" preserveAspectRatio="xMidYMid meet" viewBox="0 0 256 228"><path fill="#00D8FF" d="M210.483 73.824a171.49 171.49 0 0 0-8.24-2.597c.465-1.9.893-3.777 1.273-5.621c6.238-30.281 2.16-54.676-11.769-62.708-13.355-7.7-35.196.329-57.254 19.526a171.23 171.23 0 0 0-6.375 5.848a155.866 155.866 0 0 0-4.241-3.917C100.759 3.829 77.587-4.822 63.673 3.233C50.33 10.957 46.379 33.89 51.995 62.588a170.974 170.974 0 0 0 1.892 8.48c-3.28.932-6.445 1.924-9.474 2.98C17.309 83.498 0 98.307 0 113.668c0 15.865 18.582 31.778 46.812 41.427a145.52 145.52 0 0 0 6.921 2.165a167.467 167.467 0 0 0-2.01 9.138c-5.354 28.2-1.173 50.591 12.134 58.266c13.744 7.926 36.812-.22 59.273-19.855a145.567 145.567 0 0 0 5.342-4.923a168.064 168.064 0 0 0 6.92 6.314c21.758 18.722 43.246 26.282 56.54 18.586c13.731-7.949 18.194-32.003 12.4-61.268a145.016 145.016 0 0 0-1.535-6.842c1.62-.48 3.21-.974 4.76-1.488c29.348-9.723 48.443-25.443 48.443-41.52c0-15.417-17.868-30.326-47.517-39.844Zm-6.365 70.984c-1.4.463-2.836.91-4.3 1.345c-3.24-10.23-7.548-21.395-12.773-33.146c5.412-11.569 10.083-22.752 13.744-33.123a135.16 135.16 0 0 1 3.331 1.086c27.312 9.228 42.574 23.793 42.574 37.738c0 12.278-12.896 24.132-32.576 31.999Zm-10.741 33.749c-2.16 11.787-5.052 22.98-8.558 33.332a135.28 135.28 0 0 1-3.895 1.087c-3.927-12.596-8.707-26.287-14.127-40.67a134.71 134.71 0 0 1 7.275-10.65a134.133 134.133 0 0 1 19.305 16.901ZM87.276 214.087c-10.933 6.35-20.496 9.014-26.866 7.426-6.664-1.644-11.264-9.711-12.59-22.174-.95-9.99.534-22.112 4.121-35.127a170.975 170.975 0 0 1 6.563-19.711c12.259 23.257 26.335 43.59 41.318 59.41a133.713 133.713 0 0 1-8.546 20.095ZM42.064 130.522c-16.208-6.787-26.24-16.18-26.24-24.854c0-8.318 8.73-16.708 23.152-23.353a145.731 145.731 0 0 1 6.921-2.41c4.522 11.256 9.927 23.137 16.056 35.248-6.213 12.168-11.48 23.927-15.689 34.369Zm9.428-88.67c-3.639-12.9-5.424-24.898-5.07-34.714.42-10.502 4.338-17.406 10.131-18.954 6.524-1.756 17.44 2.323 30.09 13.127a145.86 145.86 0 0 1 5.342 4.923c-9.763 10.36-19.355 22.403-28.523 35.59a168.13 168.13 0 0 1-7.03-10.272Zm63.196 26.744c-7.86 12.783-16.257 24.56-24.855 34.957a134.718 134.718 0 0 1-19.305-16.9c9.763-10.36 19.355-22.403 28.523-35.59a168.13 168.13 0 0 1 15.637 17.533ZM127.906 30.832c10.933-6.35 20.496-9.014 26.866-7.426 6.664 1.644 11.264 9.711 12.59 22.174.95 9.99-.534 22.112-4.121 35.127a170.975 170.975 0 0 0-6.563 19.711c-12.259-23.257-26.335-43.59-41.318-59.41a133.713 133.713 0 0 0 8.546-20.095Zm45.033 56.274c16.208 6.787 26.24 16.18 26.24 24.854 0 8.318-8.73 16.708-23.152 23.353a145.731 145.731 0 0 0-6.921 2.41c-4.522-11.256-9.927-23.137-16.056-35.248 6.213-12.168 11.48-23.927 15.689-34.369Zm-9.428 88.67c3.639 12.9 5.424 24.898 5.07 34.714-.42 10.502-4.338 17.406-10.131 18.954-6.524 1.756-17.44-2.323-30.09-13.127a145.86 145.86 0 0 0-5.342-4.923c9.763-10.36 19.355-22.403 28.523-35.59a168.13 168.13 0 0 0 7.03 10.272Zm63.196-26.744c7.86-12.783 16.257-24.56 24.855-34.957a134.718 134.718 0 0 0 19.305 16.9c-9.763 10.36-19.355 22.403-28.523 35.59a168.13 168.13 0 0 0-15.637-17.533Z"></path><circle cx="128" cy="114" r="26" fill="#00D8FF"></circle></svg>
